<svg width="19" height="31" viewBox="0 0 19 31" fill="none" xmlns="http://www.w3.org/2000/svg">
    <g clip-path="url(#clip0_298_38)">
    <path d="M3.58776 24.1352C3.72614 21.1134 2.73337 18.535 0.607422 16.4001L9.10318 1.34802M14.6467 24.1352C14.5083 21.1134 15.5021 18.535 17.627 16.4001L9.13127 1.34802M9.15734 1.63946V14.9371M3.61584 24.6193H14.6467V30.4287H3.61584V24.6193Z" stroke="#1A1A1A" stroke-width="0.8"/>
    <path  d="M10.6354 16.3893C10.6354 15.5872 9.96192 14.937 9.13118 14.937C8.30044 14.937 7.62695 15.5872 7.62695 16.3893C7.62695 17.1914 8.30044 17.8417 9.13118 17.8417C9.96192 17.8417 10.6354 17.1914 10.6354 16.3893Z" stroke="#1A1A1A" stroke-width="0.8"/>
    <path d="M9.46382 1.95598L9.12185 1.32373L8.75684 1.95598" stroke="#1A1A1A" stroke-width="0.8"/>
    </g>
    <defs>
    <clipPath id="clip0_298_38">
    <rect width="18.2353" height="31" fill="white"/>
    </clipPath>
    </defs>
    </svg>
    